<svg xmlns="http://www.w3.org/2000/svg" width="1277" height="173" viewBox="0 0 1277 173" version="1.1">
	<path d="M 635.500 43.383 C 626.211 47.775, 622 54.565, 622 65.152 C 622 69.376, 622.657 72.726, 624.050 75.604 C 627.236 82.185, 629.892 83.861, 654.841 95.035 C 661.717 98.115, 665 101.962, 665 106.942 C 665 114.736, 658.571 118.641, 647.236 117.731 C 639.917 117.143, 633.998 113.789, 630.500 108.246 C 629.400 106.503, 628.156 105.060, 627.735 105.039 C 626.784 104.991, 616 112.099, 616 112.774 C 616 114.361, 620.774 120.512, 624.667 123.938 C 631.592 130.033, 637.977 132.002, 650.788 131.990 C 659.942 131.982, 662.227 131.638, 666.500 129.626 C 676.735 124.807, 680.956 118.054, 680.956 106.500 C 680.956 91.886, 675.319 86.226, 650.512 75.930 C 640.124 71.619, 637.789 69.314, 638.193 63.771 C 638.449 60.266, 639.066 59.185, 641.898 57.283 C 644.193 55.741, 646.768 55, 649.832 55 C 654.992 55, 662.518 58.231, 664.057 61.107 C 665.021 62.909, 665.428 62.784, 671.068 58.954 L 677.056 54.887 674.962 51.946 C 672.476 48.456, 665.852 43.778, 661.101 42.159 C 659.231 41.521, 653.831 41.004, 649.101 41.010 C 642.149 41.018, 639.541 41.473, 635.500 43.383 M 40 49.500 L 40 57 52 57 L 64 57 64 94 L 64 131 71.988 131 L 79.976 131 80.238 93.879 L 80.500 56.758 92.250 56.932 L 104 57.106 104 49.553 L 104 42 72 42 L 40 42 40 49.500 M 142 86.500 L 142 131 171 131 L 200 131 200 124 L 200 117 179 117 L 158 117 158 104.500 L 158 92 177 92 L 196 92 196 84.500 L 196 77 177 77 L 158 77 158 67.021 L 158 57.041 178.250 56.771 L 198.500 56.500 198.794 49.250 L 199.088 42 170.544 42 L 142 42 142 86.500 M 241 86.456 L 241 131 248.485 131 L 255.970 131 256.235 101.295 L 256.500 71.590 271 93.964 C 278.975 106.270, 285.765 116.734, 286.089 117.218 C 286.413 117.701, 293.388 107.655, 301.589 94.894 L 316.500 71.693 316.765 101.346 L 317.030 131 324.515 131 L 332 131 332 86.500 L 332 42 324.991 42 L 317.982 42 314.991 46.860 C 303.739 65.148, 287.138 90.473, 286.491 90.341 C 286.063 90.254, 278.894 79.454, 270.559 66.341 L 255.404 42.500 248.202 42.206 L 241 41.912 241 86.456 M 378 86.500 L 378 131 386 131 L 394 131 394 86.500 L 394 42 386 42 L 378 42 378 86.500 M 439 86.500 L 439 131 446.986 131 L 454.972 131 455.236 100.160 L 455.500 69.321 478.993 100.160 L 502.487 131 509.243 131 L 516 131 516 86.500 L 516 42 508.015 42 L 500.029 42 499.765 72.233 L 499.500 102.467 476.593 72.233 L 453.686 42 446.343 42 L 439 42 439 86.500 M 561 86.500 L 561 131 569.500 131 L 578 131 578 86.500 L 578 42 569.500 42 L 561 42 561 86.500 M 711 49.500 L 711 57 723 57 L 735 57 735 94 L 735 131 742.988 131 L 750.976 131 751.238 93.879 L 751.500 56.758 763.250 56.932 L 775 57.106 775 49.553 L 775 42 743 42 L 711 42 711 49.500 M 813 86.500 L 813 131 842 131 L 871 131 871 124.020 L 871 117.041 850.250 116.770 L 829.500 116.500 829.219 104.250 L 828.938 92 847.969 92 L 867 92 867 84.500 L 867 77 848 77 L 829 77 829 67.021 L 829 57.041 849.250 56.771 L 869.500 56.500 869.794 49.250 L 870.088 42 841.544 42 L 813 42 813 86.500 M 912 86.430 L 912 131 920 131 L 928 131 928 115.460 L 928 99.919 936.170 100.210 L 944.339 100.500 953.420 115.731 L 962.500 130.962 971.865 130.981 L 981.230 131 979.445 128.276 C 970.349 114.394, 959.831 95.556, 960.964 95.179 C 963.877 94.208, 970.306 87.335, 972.765 82.563 C 976.540 75.239, 976.504 65.593, 972.671 57.760 C 969.715 51.718, 966.248 48.250, 959.616 44.702 C 955.800 42.661, 953.913 42.477, 933.750 42.180 L 912 41.860 912 86.430 M 1019 86.500 L 1019 131 1027 131 L 1035 131 1035 86.500 L 1035 42 1027 42 L 1019 42 1019 86.500 M 1081 86.500 L 1081 131 1110 131 L 1139 131 1139 124 L 1139 117 1118 117 L 1097 117 1097 104.500 L 1097 92 1116 92 L 1135 92 1135 84.500 L 1135 77 1116 77 L 1097 77 1096.999 66.750 L 1096.999 56.500 1117.249 56.500 L 1137.500 56.500 1137.794 49.250 L 1138.088 42 1109.544 42 L 1081 42 1081 86.500 M 1173 49.553 L 1173 57.106 1184.750 56.932 L 1196.500 56.758 1196.762 93.879 L 1197.024 131 1205.012 131 L 1213 131 1213 94.032 L 1213 57.063 1224.750 56.782 L 1236.500 56.500 1236.794 49.250 L 1237.088 42 1205.044 42 L 1173 42 1173 49.553 M 928 71.108 L 928 85.216 939.250 84.832 C 948.134 84.530, 951.089 84.055, 953.301 82.576 C 959.046 78.735, 961.050 69.826, 957.645 63.267 C 954.977 58.128, 951.629 57, 939.050 57 L 928 57 928 71.108" stroke="none" fill="black" fill-rule="evenodd"/>
</svg>